<svg id="Ebene_1" data-name="Ebene 1" xmlns="http://www.w3.org/2000/svg" xmlns:xlink="http://www.w3.org/1999/xlink" viewBox="0 0 898.9 132.09"><defs><style>.cls-1,.cls-6,.cls-7,.cls-8{fill:none;}.cls-2{clip-path:url(#clip-path);}.cls-3{fill:#1a171b;}.cls-4{fill:#1d1d1b;}.cls-5{fill:#1aa9a8;}.cls-6,.cls-7,.cls-8{stroke:#1aa9a8;}.cls-6{stroke-miterlimit:7.85;}.cls-6,.cls-7{stroke-width:1.01px;}.cls-8{stroke-miterlimit:5.98;stroke-width:2.02px;}</style><clipPath id="clip-path" transform="translate(-25.33 -26.45)"><rect class="cls-1" x="25.33" y="26.46" width="898.89" height="132.09"/></clipPath></defs><g class="cls-2"><path class="cls-3" d="M314.33,136.51c-19.31,0-36.15-13.11-36.15-43.57s17.09-43.57,36.15-43.57,36.14,13.13,36.14,43.57-17.08,43.57-36.14,43.57m-.25-108.92A64.1,64.1,0,0,0,285.61,34l-27,87.88c9.4,24.74,31.19,36.63,55.45,36.63,32.43-.24,60.4-21.28,60.4-65.6s-28-65.35-60.4-65.35" transform="translate(-25.33 -26.45)"/><path class="cls-4" d="M419.19,134.55h-8.66V50.38h8.66c20.31,0,42.83,8.17,42.83,42.09,0,34.16-22.28,42.08-42.83,42.08m7.68-106.2H386.76V156.09h40.11c30.2,0,59.66-19.07,59.66-63.87,0-44.56-29.46-63.87-59.66-63.87" transform="translate(-25.33 -26.45)"/><path class="cls-4" d="M209.76,136.11c-19.31,0-36.14-13.12-36.14-43.57S190.7,49,209.76,49c19.31,0,36.14,13.12,36.14,43.57s-17.08,43.57-36.14,43.57m0-109.17c-32.43,0-60.4,21-60.4,65.36s28,65.35,60.4,65.35A65,65,0,0,0,239,151l26.49-86.65c-9.16-25.25-31.19-37.38-55.7-37.38" transform="translate(-25.33 -26.45)"/><path class="cls-4" d="M86.23,48.48c15.59,0,25.5,9.41,31.44,24l21.78-5.69c-6.68-23.27-24.75-40.35-53.22-40.35-31.69,0-60.9,21.78-60.9,65.35s28.22,65.36,58.92,65.36c16.34,0,26.24-7.68,30.94-15.1l2.48,14.11h19.8V91.56H90.69v19.8h23.76c-1.49,11.39-9.9,24.26-28.72,24.26-19.8,0-36.14-12.87-36.14-43.57,0-29.71,16.34-43.57,36.64-43.57" transform="translate(-25.33 -26.45)"/><path class="cls-5" d="M785.55,144.3H749.1V94H785c16.57,0,27.18,12.15,27.18,25.78,0,13.07-10.24,24.48-26.62,24.48m-2.76-104c13.43,0,23.7,7.92,23.7,20.81,0,12.52-8.79,22.27-21.31,22.27H749.1V40.28ZM801,88.15c11.78-4.79,17.6-16.57,17.6-28,0-19.7-15.24-31.3-35.67-31.3h-46V155.71h50.63c22.46,0,36.75-16.93,36.75-35,0-13.26-7.08-28.36-23.28-32.59" transform="translate(-25.33 -26.45)"/><path class="cls-6" d="M785.55,144.3H749.1V94H785c16.57,0,27.18,12.15,27.18,25.78C812.17,132.89,801.93,144.3,785.55,144.3Zm-2.76-104c13.43,0,23.7,7.92,23.7,20.81,0,12.52-8.79,22.27-21.31,22.27H749.1V40.28ZM801,88.15c11.78-4.79,17.6-16.57,17.6-28,0-19.7-15.24-31.3-35.67-31.3h-46V155.71h50.63c22.46,0,36.75-16.93,36.75-35C824.32,107.48,817.24,92.38,801,88.15Z" transform="translate(-25.33 -26.45)"/><path class="cls-5" d="M882.28,156.07c27.09,0,41.45-18.48,41.45-35.88,0-17.94-13.64-28.53-33.2-33.37l-16.68-3.95C855.37,78.56,853.57,68.69,853.57,63c0-13.81,13.1-22.6,27.1-22.6,14.89,0,26.19,8.79,26.91,22.42h11.84C918.7,42.14,902,29.22,881,29.22c-20.45,0-39.29,13.28-39.29,33.73,0,9.87,3.77,24.76,29.25,30.86l16.68,4c12.2,3,24.22,9.51,24.22,23,0,11.66-9.86,24.22-29.6,24.22-17.4,0-28.53-11.67-29.78-23.87H840.84c.89,18,17.22,35,41.44,35" transform="translate(-25.33 -26.45)"/><path class="cls-7" d="M882.28,156.07c27.09,0,41.45-18.48,41.45-35.88,0-17.94-13.64-28.53-33.2-33.37l-16.68-3.95C855.37,78.56,853.57,68.69,853.57,63c0-13.81,13.1-22.6,27.1-22.6,14.89,0,26.19,8.79,26.91,22.42h11.84C918.7,42.14,902,29.22,881,29.22c-20.45,0-39.29,13.28-39.29,33.73,0,9.87,3.77,24.76,29.25,30.86l16.68,4c12.2,3,24.22,9.51,24.22,23,0,11.66-9.86,24.22-29.6,24.22-17.4,0-28.53-11.67-29.78-23.87H840.84C841.73,139,858.06,156.07,882.28,156.07Z" transform="translate(-25.33 -26.45)"/><path class="cls-5" d="M656.38,145.69c-29.11,0-47.58-24-47.58-53.27S627.27,39,656.38,39,705,63.13,705,92.42s-19.48,53.27-48.59,53.27m0,11.35c35.88,0,60.68-28.92,60.68-64.62,0-35.88-24.8-64.8-60.68-64.8s-59.67,28.92-59.67,64.8c0,35.7,23.79,64.62,59.67,64.62" transform="translate(-25.33 -26.45)"/><path class="cls-7" d="M656.38,145.69c-29.11,0-47.58-24-47.58-53.27S627.27,39,656.38,39,705,63.13,705,92.42,685.49,145.69,656.38,145.69Zm0,11.35c35.88,0,60.68-28.92,60.68-64.62,0-35.88-24.8-64.8-60.68-64.8s-59.67,28.92-59.67,64.8C596.71,128.12,620.5,157,656.38,157Z" transform="translate(-25.33 -26.45)"/><path class="cls-5" d="M567.25,116.15q0,13.74-7.53,21.85a25.05,25.05,0,0,1-19.17,8.09q-13.49,0-20.54-6.87T513,118h-9.81l-.18.52q-.44,17.86,9.81,27.15t27.76,9.28q16.46,0,26.83-10.51t10.38-28.28V29.74H567.25Z" transform="translate(-25.33 -26.45)"/><path class="cls-8" d="M567.25,116.15q0,13.74-7.53,21.85a25.05,25.05,0,0,1-19.17,8.09q-13.49,0-20.54-6.87T513,118h-9.81l-.18.52q-.44,17.86,9.81,27.15t27.76,9.28q16.46,0,26.83-10.51t10.38-28.28V29.74H567.25Z" transform="translate(-25.33 -26.45)"/></g></svg>